<?xml version="1.0" encoding="UTF-8"?>
<!DOCTYPE svg
PUBLIC "-//W3C//DTD SVG 1.1//EN"
       "http://www.w3.org/Graphics/SVG/1.1/DTD/svg11.dtd">
<svg viewBox="116 -2 1572 812" width="1456px" height="814px" xmlns="http://www.w3.org/2000/svg" version="1.1">
   <line x1="1080" y1="158" x2="1070" y2="158" style="stroke:#0b0;stroke-width:1;"/>
   <line x1="487" y1="502" x2="477" y2="502" style="stroke:#0b0;stroke-width:1;"/>
   <line x1="1070" y1="158" x2="487" y2="502" style="stroke:#0b0;stroke-width:1;"/>
   <line x1="1072.5" y1="158" x2="1076.0355339059" y2="161.53553390593" style="stroke:#0b0;stroke-width:2;"/>
   <line x1="1072.5" y1="158" x2="1076.0355339059" y2="154.46446609407" style="stroke:#0b0;stroke-width:2;"/>
   <line x1="482" y1="502" x2="485.53553390593" y2="505.53553390593" style="stroke:#0b0;stroke-width:2;"/>
   <line x1="482" y1="502" x2="485.53553390593" y2="498.46446609407" style="stroke:#0b0;stroke-width:2;"/>
   <line x1="1080" y1="178" x2="1070" y2="178" style="stroke:#cb0;stroke-width:1;"/>
   <line x1="908" y1="227" x2="898" y2="227" style="stroke:#cb0;stroke-width:1;"/>
   <line x1="1070" y1="178" x2="908" y2="227" style="stroke:#cb0;stroke-width:1;"/>
   <line x1="1072.5" y1="178" x2="1076.0355339059" y2="181.53553390593" style="stroke:#cb0;stroke-width:2;"/>
   <line x1="1072.5" y1="178" x2="1076.0355339059" y2="174.46446609407" style="stroke:#cb0;stroke-width:2;"/>
   <line x1="903" y1="227" x2="906.53553390593" y2="230.53553390593" style="stroke:#cb0;stroke-width:2;"/>
   <line x1="903" y1="227" x2="906.53553390593" y2="223.46446609407" style="stroke:#cb0;stroke-width:2;"/>
   <line x1="737" y1="727" x2="727" y2="727" style="stroke:#b0b;stroke-width:1;"/>
   <line x1="544" y1="263" x2="534" y2="263" style="stroke:#b0b;stroke-width:1;"/>
   <line x1="727" y1="727" x2="544" y2="263" style="stroke:#b0b;stroke-width:1;"/>
   <line x1="729.5" y1="727" x2="733.03553390593" y2="730.53553390593" style="stroke:#b0b;stroke-width:2;"/>
   <line x1="729.5" y1="727" x2="733.03553390593" y2="723.46446609407" style="stroke:#b0b;stroke-width:2;"/>
   <line x1="539" y1="263" x2="542.53553390593" y2="266.53553390593" style="stroke:#b0b;stroke-width:2;"/>
   <line x1="539" y1="263" x2="542.53553390593" y2="259.46446609407" style="stroke:#b0b;stroke-width:2;"/>
   <line x1="737" y1="747" x2="727" y2="747" style="stroke:#333;stroke-width:1;"/>
   <line x1="761" y1="227" x2="771" y2="227" style="stroke:#333;stroke-width:1;"/>
   <line x1="727" y1="747" x2="761" y2="227" style="stroke:#333;stroke-width:1;"/>
   <line x1="729.5" y1="747" x2="733.03553390593" y2="750.53553390593" style="stroke:#333;stroke-width:2;"/>
   <line x1="729.5" y1="747" x2="733.03553390593" y2="743.46446609407" style="stroke:#333;stroke-width:2;"/>
   <line x1="766" y1="227" x2="762.46446609407" y2="230.53553390593" style="stroke:#333;stroke-width:2;"/>
   <line x1="766" y1="227" x2="762.46446609407" y2="223.46446609407" style="stroke:#333;stroke-width:2;"/>
   <line x1="1072" y1="727" x2="1062" y2="727" style="stroke:#cb0;stroke-width:1;"/>
   <line x1="908" y1="227" x2="898" y2="227" style="stroke:#cb0;stroke-width:1;"/>
   <line x1="1062" y1="727" x2="908" y2="227" style="stroke:#cb0;stroke-width:1;"/>
   <line x1="1064.5" y1="727" x2="1068.0355339059" y2="730.53553390593" style="stroke:#cb0;stroke-width:2;"/>
   <line x1="1064.5" y1="727" x2="1068.0355339059" y2="723.46446609407" style="stroke:#cb0;stroke-width:2;"/>
   <line x1="903" y1="227" x2="906.53553390593" y2="230.53553390593" style="stroke:#cb0;stroke-width:2;"/>
   <line x1="903" y1="227" x2="906.53553390593" y2="223.46446609407" style="stroke:#cb0;stroke-width:2;"/>
   <line x1="1072" y1="747" x2="1062" y2="747" style="stroke:#0bf;stroke-width:1;"/>
   <line x1="908" y1="227" x2="898" y2="227" style="stroke:#0bf;stroke-width:1;"/>
   <line x1="1062" y1="747" x2="908" y2="227" style="stroke:#0bf;stroke-width:1;"/>
   <line x1="1064.5" y1="747" x2="1068.0355339059" y2="750.53553390593" style="stroke:#0bf;stroke-width:2;"/>
   <line x1="1064.5" y1="747" x2="1068.0355339059" y2="743.46446609407" style="stroke:#0bf;stroke-width:2;"/>
   <line x1="903" y1="227" x2="906.53553390593" y2="230.53553390593" style="stroke:#0bf;stroke-width:2;"/>
   <line x1="903" y1="227" x2="906.53553390593" y2="223.46446609407" style="stroke:#0bf;stroke-width:2;"/>
   <line x1="477" y1="542" x2="487" y2="542" style="stroke:#b0b;stroke-width:1;"/>
   <line x1="438" y1="263" x2="448" y2="263" style="stroke:#b0b;stroke-width:1;"/>
   <line x1="487" y1="542" x2="438" y2="263" style="stroke:#b0b;stroke-width:1;"/>
   <line x1="484.5" y1="542" x2="480.96446609407" y2="545.53553390593" style="stroke:#b0b;stroke-width:2;"/>
   <line x1="484.5" y1="542" x2="480.96446609407" y2="538.46446609407" style="stroke:#b0b;stroke-width:2;"/>
   <line x1="443" y1="263" x2="439.46446609407" y2="266.53553390593" style="stroke:#b0b;stroke-width:2;"/>
   <line x1="443" y1="263" x2="439.46446609407" y2="259.46446609407" style="stroke:#b0b;stroke-width:2;"/>
   <line x1="1500" y1="154" x2="1510" y2="154" style="stroke:#333;stroke-width:1;"/>
   <line x1="1538" y1="641" x2="1528" y2="641" style="stroke:#333;stroke-width:1;"/>
   <line x1="1510" y1="154" x2="1538" y2="641" style="stroke:#333;stroke-width:1;"/>
   <line x1="1507.5" y1="154" x2="1503.9644660941" y2="157.53553390593" style="stroke:#333;stroke-width:2;"/>
   <line x1="1507.5" y1="154" x2="1503.9644660941" y2="150.46446609407" style="stroke:#333;stroke-width:2;"/>
   <line x1="1533" y1="641" x2="1536.5355339059" y2="644.53553390593" style="stroke:#333;stroke-width:2;"/>
   <line x1="1533" y1="641" x2="1536.5355339059" y2="637.46446609407" style="stroke:#333;stroke-width:2;"/>
   <line x1="1358" y1="174" x2="1348" y2="174" style="stroke:#c00;stroke-width:1;"/>
   <line x1="908" y1="227" x2="898" y2="227" style="stroke:#c00;stroke-width:1;"/>
   <line x1="1348" y1="174" x2="908" y2="227" style="stroke:#c00;stroke-width:1;"/>
   <line x1="1350.5" y1="174" x2="1354.0355339059" y2="177.53553390593" style="stroke:#c00;stroke-width:2;"/>
   <line x1="1350.5" y1="174" x2="1354.0355339059" y2="170.46446609407" style="stroke:#c00;stroke-width:2;"/>
   <line x1="903" y1="227" x2="906.53553390593" y2="230.53553390593" style="stroke:#c00;stroke-width:2;"/>
   <line x1="903" y1="227" x2="906.53553390593" y2="223.46446609407" style="stroke:#c00;stroke-width:2;"/>
   <line x1="1391" y1="701" x2="1381" y2="701" style="stroke:#cb0;stroke-width:1;"/>
   <line x1="908" y1="227" x2="898" y2="227" style="stroke:#cb0;stroke-width:1;"/>
   <line x1="1381" y1="701" x2="908" y2="227" style="stroke:#cb0;stroke-width:1;"/>
   <line x1="1383.5" y1="701" x2="1387.0355339059" y2="704.53553390593" style="stroke:#cb0;stroke-width:2;"/>
   <line x1="1383.5" y1="701" x2="1387.0355339059" y2="697.46446609407" style="stroke:#cb0;stroke-width:2;"/>
   <line x1="903" y1="227" x2="906.53553390593" y2="230.53553390593" style="stroke:#cb0;stroke-width:2;"/>
   <line x1="903" y1="227" x2="906.53553390593" y2="223.46446609407" style="stroke:#cb0;stroke-width:2;"/>
   <line x1="1528" y1="721" x2="1538" y2="721" style="stroke:#b0b;stroke-width:1;"/>
   <line x1="1567" y1="396" x2="1557" y2="396" style="stroke:#b0b;stroke-width:1;"/>
   <line x1="1538" y1="721" x2="1567" y2="396" style="stroke:#b0b;stroke-width:1;"/>
   <line x1="1535.5" y1="721" x2="1531.9644660941" y2="724.53553390593" style="stroke:#b0b;stroke-width:2;"/>
   <line x1="1535.5" y1="721" x2="1531.9644660941" y2="717.46446609407" style="stroke:#b0b;stroke-width:2;"/>
   <line x1="1562" y1="396" x2="1565.5355339059" y2="399.53553390593" style="stroke:#b0b;stroke-width:2;"/>
   <line x1="1562" y1="396" x2="1565.5355339059" y2="392.46446609407" style="stroke:#b0b;stroke-width:2;"/>
   <rect width="127" height="20" x="284" y="13" style="fill:#007;stroke:black;"/>
   <text width="127" height="20" x="289" y="27" style="fill:#fff;" font-family="Arial" font-size="16px"> admins</text>
   <rect width="127" height="20" x="284" y="33" style="fill:#aea;stroke:black;"/>
   <text width="127" height="20" x="289" y="47" style="fill:black;" font-family="Arial" font-size="16px">id</text>
   <rect width="127" height="20" x="284" y="53" style="fill:none;stroke:black;"/>
   <text width="127" height="20" x="289" y="67" style="fill:black;" font-family="Arial" font-size="16px">name</text>
   <rect width="127" height="20" x="284" y="73" style="fill:none;stroke:black;"/>
   <text width="127" height="20" x="289" y="87" style="fill:black;" font-family="Arial" font-size="16px">phone</text>
   <rect width="127" height="20" x="284" y="93" style="fill:none;stroke:black;"/>
   <text width="127" height="20" x="289" y="107" style="fill:black;" font-family="Arial" font-size="16px">email</text>
   <rect width="127" height="20" x="284" y="113" style="fill:none;stroke:black;"/>
   <text width="127" height="20" x="289" y="127" style="fill:black;" font-family="Arial" font-size="16px">password</text>
   <rect width="127" height="20" x="284" y="133" style="fill:none;stroke:black;"/>
   <text width="127" height="20" x="289" y="147" style="fill:black;" font-family="Arial" font-size="16px">remember_token</text>
   <rect width="127" height="20" x="284" y="153" style="fill:none;stroke:black;"/>
   <text width="127" height="20" x="289" y="167" style="fill:black;" font-family="Arial" font-size="16px">created_at</text>
   <rect width="127" height="20" x="284" y="173" style="fill:none;stroke:black;"/>
   <text width="127" height="20" x="289" y="187" style="fill:black;" font-family="Arial" font-size="16px">updated_at</text>
   <rect width="88" height="20" x="1080" y="88" style="fill:#007;stroke:black;"/>
   <text width="88" height="20" x="1085" y="102" style="fill:#fff;" font-family="Arial" font-size="16px"> answers</text>
   <rect width="88" height="20" x="1080" y="108" style="fill:#aea;stroke:black;"/>
   <text width="88" height="20" x="1085" y="122" style="fill:black;" font-family="Arial" font-size="16px">id</text>
   <rect width="88" height="20" x="1080" y="128" style="fill:none;stroke:black;"/>
   <text width="88" height="20" x="1085" y="142" style="fill:black;" font-family="Arial" font-size="16px">answer</text>
   <rect width="88" height="20" x="1080" y="148" style="fill:none;stroke:black;"/>
   <text width="88" height="20" x="1085" y="162" style="fill:black;" font-family="Arial" font-size="16px">question_id</text>
   <rect width="88" height="20" x="1080" y="168" style="fill:none;stroke:black;"/>
   <text width="88" height="20" x="1085" y="182" style="fill:black;" font-family="Arial" font-size="16px">user_id</text>
   <rect width="88" height="20" x="1080" y="188" style="fill:none;stroke:black;"/>
   <text width="88" height="20" x="1085" y="202" style="fill:black;" font-family="Arial" font-size="16px">created_at</text>
   <rect width="88" height="20" x="1080" y="208" style="fill:none;stroke:black;"/>
   <text width="88" height="20" x="1085" y="222" style="fill:black;" font-family="Arial" font-size="16px">updated_at</text>
   <rect width="86" height="20" x="448" y="233" style="fill:#007;stroke:black;"/>
   <text width="86" height="20" x="453" y="247" style="fill:#fff;" font-family="Arial" font-size="16px"> categories</text>
   <rect width="86" height="20" x="448" y="253" style="fill:#aea;stroke:black;"/>
   <text width="86" height="20" x="453" y="267" style="fill:black;" font-family="Arial" font-size="16px">id</text>
   <rect width="86" height="20" x="448" y="273" style="fill:none;stroke:black;"/>
   <text width="86" height="20" x="453" y="287" style="fill:black;" font-family="Arial" font-size="16px">name</text>
   <rect width="86" height="20" x="448" y="293" style="fill:none;stroke:black;"/>
   <text width="86" height="20" x="453" y="307" style="fill:black;" font-family="Arial" font-size="16px">parent_id</text>
   <rect width="86" height="20" x="448" y="313" style="fill:none;stroke:black;"/>
   <text width="86" height="20" x="453" y="327" style="fill:black;" font-family="Arial" font-size="16px">deleted_at</text>
   <rect width="86" height="20" x="448" y="333" style="fill:none;stroke:black;"/>
   <text width="86" height="20" x="453" y="347" style="fill:black;" font-family="Arial" font-size="16px">created_at</text>
   <rect width="86" height="20" x="448" y="353" style="fill:none;stroke:black;"/>
   <text width="86" height="20" x="453" y="367" style="fill:black;" font-family="Arial" font-size="16px">updated_at</text>
   <rect width="117" height="20" x="737" y="677" style="fill:#007;stroke:black;"/>
   <text width="117" height="20" x="742" y="691" style="fill:#fff;" font-family="Arial" font-size="16px"> category_users</text>
   <rect width="117" height="20" x="737" y="697" style="fill:#aea;stroke:black;"/>
   <text width="117" height="20" x="742" y="711" style="fill:black;" font-family="Arial" font-size="16px">id</text>
   <rect width="117" height="20" x="737" y="717" style="fill:none;stroke:black;"/>
   <text width="117" height="20" x="742" y="731" style="fill:black;" font-family="Arial" font-size="16px">category_id</text>
   <rect width="117" height="20" x="737" y="737" style="fill:none;stroke:black;"/>
   <text width="117" height="20" x="742" y="751" style="fill:black;" font-family="Arial" font-size="16px">doctor_id</text>
   <rect width="117" height="20" x="737" y="757" style="fill:none;stroke:black;"/>
   <text width="117" height="20" x="742" y="771" style="fill:black;" font-family="Arial" font-size="16px">created_at</text>
   <rect width="117" height="20" x="737" y="777" style="fill:none;stroke:black;"/>
   <text width="117" height="20" x="742" y="791" style="fill:black;" font-family="Arial" font-size="16px">updated_at</text>
   <rect width="87" height="20" x="544" y="25" style="fill:#007;stroke:black;"/>
   <text width="87" height="20" x="549" y="39" style="fill:#fff;" font-family="Arial" font-size="16px"> failed_jobs</text>
   <rect width="87" height="20" x="544" y="45" style="fill:#aea;stroke:black;"/>
   <text width="87" height="20" x="549" y="59" style="fill:black;" font-family="Arial" font-size="16px">id</text>
   <rect width="87" height="20" x="544" y="65" style="fill:none;stroke:black;"/>
   <text width="87" height="20" x="549" y="79" style="fill:black;" font-family="Arial" font-size="16px">uuid</text>
   <rect width="87" height="20" x="544" y="85" style="fill:none;stroke:black;"/>
   <text width="87" height="20" x="549" y="99" style="fill:black;" font-family="Arial" font-size="16px">connection</text>
   <rect width="87" height="20" x="544" y="105" style="fill:none;stroke:black;"/>
   <text width="87" height="20" x="549" y="119" style="fill:black;" font-family="Arial" font-size="16px">queue</text>
   <rect width="87" height="20" x="544" y="125" style="fill:none;stroke:black;"/>
   <text width="87" height="20" x="549" y="139" style="fill:black;" font-family="Arial" font-size="16px">payload</text>
   <rect width="87" height="20" x="544" y="145" style="fill:none;stroke:black;"/>
   <text width="87" height="20" x="549" y="159" style="fill:black;" font-family="Arial" font-size="16px">exception</text>
   <rect width="87" height="20" x="544" y="165" style="fill:none;stroke:black;"/>
   <text width="87" height="20" x="549" y="179" style="fill:black;" font-family="Arial" font-size="16px">failed_at</text>
   <rect width="86" height="20" x="1072" y="637" style="fill:#007;stroke:black;"/>
   <text width="86" height="20" x="1077" y="651" style="fill:#fff;" font-family="Arial" font-size="16px"> feedback</text>
   <rect width="86" height="20" x="1072" y="657" style="fill:#aea;stroke:black;"/>
   <text width="86" height="20" x="1077" y="671" style="fill:black;" font-family="Arial" font-size="16px">id</text>
   <rect width="86" height="20" x="1072" y="677" style="fill:none;stroke:black;"/>
   <text width="86" height="20" x="1077" y="691" style="fill:black;" font-family="Arial" font-size="16px">star</text>
   <rect width="86" height="20" x="1072" y="697" style="fill:none;stroke:black;"/>
   <text width="86" height="20" x="1077" y="711" style="fill:black;" font-family="Arial" font-size="16px">comment</text>
   <rect width="86" height="20" x="1072" y="717" style="fill:none;stroke:black;"/>
   <text width="86" height="20" x="1077" y="731" style="fill:black;" font-family="Arial" font-size="16px">doctor_id</text>
   <rect width="86" height="20" x="1072" y="737" style="fill:none;stroke:black;"/>
   <text width="86" height="20" x="1077" y="751" style="fill:black;" font-family="Arial" font-size="16px">user_id</text>
   <rect width="86" height="20" x="1072" y="757" style="fill:none;stroke:black;"/>
   <text width="86" height="20" x="1077" y="771" style="fill:black;" font-family="Arial" font-size="16px">created_at</text>
   <rect width="86" height="20" x="1072" y="777" style="fill:none;stroke:black;"/>
   <text width="86" height="20" x="1077" y="791" style="fill:black;" font-family="Arial" font-size="16px">updated_at</text>
   <rect width="83" height="20" x="193" y="672" style="fill:#007;stroke:black;"/>
   <text width="83" height="20" x="198" y="686" style="fill:#fff;" font-family="Arial" font-size="16px"> migrations</text>
   <rect width="83" height="20" x="193" y="692" style="fill:#aea;stroke:black;"/>
   <text width="83" height="20" x="198" y="706" style="fill:black;" font-family="Arial" font-size="16px">id</text>
   <rect width="83" height="20" x="193" y="712" style="fill:none;stroke:black;"/>
   <text width="83" height="20" x="198" y="726" style="fill:black;" font-family="Arial" font-size="16px">migration</text>
   <rect width="83" height="20" x="193" y="732" style="fill:none;stroke:black;"/>
   <text width="83" height="20" x="198" y="746" style="fill:black;" font-family="Arial" font-size="16px">batch</text>
   <rect width="123" height="20" x="465" y="673" style="fill:#007;stroke:black;"/>
   <text width="123" height="20" x="470" y="687" style="fill:#fff;" font-family="Arial" font-size="16px"> password_resets</text>
   <rect width="123" height="20" x="465" y="693" style="fill:none;stroke:black;"/>
   <text width="123" height="20" x="470" y="707" style="fill:black;" font-family="Arial" font-size="16px">email</text>
   <rect width="123" height="20" x="465" y="713" style="fill:none;stroke:black;"/>
   <text width="123" height="20" x="470" y="727" style="fill:black;" font-family="Arial" font-size="16px">token</text>
   <rect width="123" height="20" x="465" y="733" style="fill:none;stroke:black;"/>
   <text width="123" height="20" x="470" y="747" style="fill:black;" font-family="Arial" font-size="16px">created_at</text>
   <rect width="178" height="20" x="131" y="257" style="fill:#007;stroke:black;"/>
   <text width="178" height="20" x="136" y="271" style="fill:#fff;" font-family="Arial" font-size="16px"> personal_access_tokens</text>
   <rect width="178" height="20" x="131" y="277" style="fill:#aea;stroke:black;"/>
   <text width="178" height="20" x="136" y="291" style="fill:black;" font-family="Arial" font-size="16px">id</text>
   <rect width="178" height="20" x="131" y="297" style="fill:none;stroke:black;"/>
   <text width="178" height="20" x="136" y="311" style="fill:black;" font-family="Arial" font-size="16px">tokenable_type</text>
   <rect width="178" height="20" x="131" y="317" style="fill:none;stroke:black;"/>
   <text width="178" height="20" x="136" y="331" style="fill:black;" font-family="Arial" font-size="16px">tokenable_id</text>
   <rect width="178" height="20" x="131" y="337" style="fill:none;stroke:black;"/>
   <text width="178" height="20" x="136" y="351" style="fill:black;" font-family="Arial" font-size="16px">name</text>
   <rect width="178" height="20" x="131" y="357" style="fill:none;stroke:black;"/>
   <text width="178" height="20" x="136" y="371" style="fill:black;" font-family="Arial" font-size="16px">token</text>
   <rect width="178" height="20" x="131" y="377" style="fill:none;stroke:black;"/>
   <text width="178" height="20" x="136" y="391" style="fill:black;" font-family="Arial" font-size="16px">abilities</text>
   <rect width="178" height="20" x="131" y="397" style="fill:none;stroke:black;"/>
   <text width="178" height="20" x="136" y="411" style="fill:black;" font-family="Arial" font-size="16px">last_used_at</text>
   <rect width="178" height="20" x="131" y="417" style="fill:none;stroke:black;"/>
   <text width="178" height="20" x="136" y="431" style="fill:black;" font-family="Arial" font-size="16px">created_at</text>
   <rect width="178" height="20" x="131" y="437" style="fill:none;stroke:black;"/>
   <text width="178" height="20" x="136" y="451" style="fill:black;" font-family="Arial" font-size="16px">updated_at</text>
   <rect width="89" height="20" x="388" y="472" style="fill:#007;stroke:black;"/>
   <text width="89" height="20" x="393" y="486" style="fill:#fff;" font-family="Arial" font-size="16px"> questions</text>
   <rect width="89" height="20" x="388" y="492" style="fill:#aea;stroke:black;"/>
   <text width="89" height="20" x="393" y="506" style="fill:black;" font-family="Arial" font-size="16px">id</text>
   <rect width="89" height="20" x="388" y="512" style="fill:none;stroke:black;"/>
   <text width="89" height="20" x="393" y="526" style="fill:black;" font-family="Arial" font-size="16px">title</text>
   <rect width="89" height="20" x="388" y="532" style="fill:none;stroke:black;"/>
   <text width="89" height="20" x="393" y="546" style="fill:black;" font-family="Arial" font-size="16px">category_id</text>
   <rect width="89" height="20" x="388" y="552" style="fill:none;stroke:black;"/>
   <text width="89" height="20" x="393" y="566" style="fill:black;" font-family="Arial" font-size="16px">created_at</text>
   <rect width="89" height="20" x="388" y="572" style="fill:none;stroke:black;"/>
   <text width="89" height="20" x="393" y="586" style="fill:black;" font-family="Arial" font-size="16px">updated_at</text>
   <rect width="142" height="20" x="1358" y="104" style="fill:#007;stroke:black;"/>
   <text width="142" height="20" x="1363" y="118" style="fill:#fff;" font-family="Arial" font-size="16px"> reservations</text>
   <rect width="142" height="20" x="1358" y="124" style="fill:#aea;stroke:black;"/>
   <text width="142" height="20" x="1363" y="138" style="fill:black;" font-family="Arial" font-size="16px">id</text>
   <rect width="142" height="20" x="1358" y="144" style="fill:none;stroke:black;"/>
   <text width="142" height="20" x="1363" y="158" style="fill:black;" font-family="Arial" font-size="16px">reservation_time_id</text>
   <rect width="142" height="20" x="1358" y="164" style="fill:none;stroke:black;"/>
   <text width="142" height="20" x="1363" y="178" style="fill:black;" font-family="Arial" font-size="16px">user_id</text>
   <rect width="142" height="20" x="1358" y="184" style="fill:none;stroke:black;"/>
   <text width="142" height="20" x="1363" y="198" style="fill:black;" font-family="Arial" font-size="16px">is_approved</text>
   <rect width="142" height="20" x="1358" y="204" style="fill:none;stroke:black;"/>
   <text width="142" height="20" x="1363" y="218" style="fill:black;" font-family="Arial" font-size="16px">created_at</text>
   <rect width="142" height="20" x="1358" y="224" style="fill:none;stroke:black;"/>
   <text width="142" height="20" x="1363" y="238" style="fill:black;" font-family="Arial" font-size="16px">updated_at</text>
   <rect width="128" height="20" x="1429" y="366" style="fill:#007;stroke:black;"/>
   <text width="128" height="20" x="1434" y="380" style="fill:#fff;" font-family="Arial" font-size="16px"> reservation_days</text>
   <rect width="128" height="20" x="1429" y="386" style="fill:#aea;stroke:black;"/>
   <text width="128" height="20" x="1434" y="400" style="fill:black;" font-family="Arial" font-size="16px">id</text>
   <rect width="128" height="20" x="1429" y="406" style="fill:none;stroke:black;"/>
   <text width="128" height="20" x="1434" y="420" style="fill:black;" font-family="Arial" font-size="16px">day</text>
   <rect width="128" height="20" x="1429" y="426" style="fill:none;stroke:black;"/>
   <text width="128" height="20" x="1434" y="440" style="fill:black;" font-family="Arial" font-size="16px">created_at</text>
   <rect width="128" height="20" x="1429" y="446" style="fill:none;stroke:black;"/>
   <text width="128" height="20" x="1434" y="460" style="fill:black;" font-family="Arial" font-size="16px">updated_at</text>
   <rect width="137" height="20" x="1391" y="611" style="fill:#007;stroke:black;"/>
   <text width="137" height="20" x="1396" y="625" style="fill:#fff;" font-family="Arial" font-size="16px"> reservation_times</text>
   <rect width="137" height="20" x="1391" y="631" style="fill:#aea;stroke:black;"/>
   <text width="137" height="20" x="1396" y="645" style="fill:black;" font-family="Arial" font-size="16px">id</text>
   <rect width="137" height="20" x="1391" y="651" style="fill:none;stroke:black;"/>
   <text width="137" height="20" x="1396" y="665" style="fill:black;" font-family="Arial" font-size="16px">from</text>
   <rect width="137" height="20" x="1391" y="671" style="fill:none;stroke:black;"/>
   <text width="137" height="20" x="1396" y="685" style="fill:black;" font-family="Arial" font-size="16px">to</text>
   <rect width="137" height="20" x="1391" y="691" style="fill:none;stroke:black;"/>
   <text width="137" height="20" x="1396" y="705" style="fill:black;" font-family="Arial" font-size="16px">doctor_id</text>
   <rect width="137" height="20" x="1391" y="711" style="fill:none;stroke:black;"/>
   <text width="137" height="20" x="1396" y="725" style="fill:black;" font-family="Arial" font-size="16px">reservation_day_id</text>
   <rect width="137" height="20" x="1391" y="731" style="fill:none;stroke:black;"/>
   <text width="137" height="20" x="1396" y="745" style="fill:black;" font-family="Arial" font-size="16px">created_at</text>
   <rect width="137" height="20" x="1391" y="751" style="fill:none;stroke:black;"/>
   <text width="137" height="20" x="1396" y="765" style="fill:black;" font-family="Arial" font-size="16px">updated_at</text>
   <rect width="127" height="20" x="771" y="197" style="fill:#007;stroke:black;"/>
   <text width="127" height="20" x="776" y="211" style="fill:#fff;" font-family="Arial" font-size="16px"> users</text>
   <rect width="127" height="20" x="771" y="217" style="fill:#aea;stroke:black;"/>
   <text width="127" height="20" x="776" y="231" style="fill:black;" font-family="Arial" font-size="16px">id</text>
   <rect width="127" height="20" x="771" y="237" style="fill:none;stroke:black;"/>
   <text width="127" height="20" x="776" y="251" style="fill:black;" font-family="Arial" font-size="16px">name</text>
   <rect width="127" height="20" x="771" y="257" style="fill:none;stroke:black;"/>
   <text width="127" height="20" x="776" y="271" style="fill:black;" font-family="Arial" font-size="16px">phone</text>
   <rect width="127" height="20" x="771" y="277" style="fill:none;stroke:black;"/>
   <text width="127" height="20" x="776" y="291" style="fill:black;" font-family="Arial" font-size="16px">address</text>
   <rect width="127" height="20" x="771" y="297" style="fill:none;stroke:black;"/>
   <text width="127" height="20" x="776" y="311" style="fill:black;" font-family="Arial" font-size="16px">email</text>
   <rect width="127" height="20" x="771" y="317" style="fill:none;stroke:black;"/>
   <text width="127" height="20" x="776" y="331" style="fill:black;" font-family="Arial" font-size="16px">type</text>
   <rect width="127" height="20" x="771" y="337" style="fill:none;stroke:black;"/>
   <text width="127" height="20" x="776" y="351" style="fill:black;" font-family="Arial" font-size="16px">password</text>
   <rect width="127" height="20" x="771" y="357" style="fill:none;stroke:black;"/>
   <text width="127" height="20" x="776" y="371" style="fill:black;" font-family="Arial" font-size="16px">description</text>
   <rect width="127" height="20" x="771" y="377" style="fill:none;stroke:black;"/>
   <text width="127" height="20" x="776" y="391" style="fill:black;" font-family="Arial" font-size="16px">wait_time</text>
   <rect width="127" height="20" x="771" y="397" style="fill:none;stroke:black;"/>
   <text width="127" height="20" x="776" y="411" style="fill:black;" font-family="Arial" font-size="16px">price</text>
   <rect width="127" height="20" x="771" y="417" style="fill:none;stroke:black;"/>
   <text width="127" height="20" x="776" y="431" style="fill:black;" font-family="Arial" font-size="16px">is_approved</text>
   <rect width="127" height="20" x="771" y="437" style="fill:none;stroke:black;"/>
   <text width="127" height="20" x="776" y="451" style="fill:black;" font-family="Arial" font-size="16px">is_active</text>
   <rect width="127" height="20" x="771" y="457" style="fill:none;stroke:black;"/>
   <text width="127" height="20" x="776" y="471" style="fill:black;" font-family="Arial" font-size="16px">email_verified_at</text>
   <rect width="127" height="20" x="771" y="477" style="fill:none;stroke:black;"/>
   <text width="127" height="20" x="776" y="491" style="fill:black;" font-family="Arial" font-size="16px">remember_token</text>
   <rect width="127" height="20" x="771" y="497" style="fill:none;stroke:black;"/>
   <text width="127" height="20" x="776" y="511" style="fill:black;" font-family="Arial" font-size="16px">created_at</text>
   <rect width="127" height="20" x="771" y="517" style="fill:none;stroke:black;"/>
   <text width="127" height="20" x="776" y="531" style="fill:black;" font-family="Arial" font-size="16px">updated_at</text>
   <rect width="127" height="20" x="771" y="537" style="fill:none;stroke:black;"/>
   <text width="127" height="20" x="776" y="551" style="fill:black;" font-family="Arial" font-size="16px">image</text>
</svg>
